<?xml version="1.0" encoding="UTF-8"?>
<svg id="Layer_1" data-name="Layer 1" xmlns="http://www.w3.org/2000/svg" xmlns:xlink="http://www.w3.org/1999/xlink" viewBox="0 0 1050 1050">
  <defs>
    <style>
      .cls-1 {
        fill: url(#linear-gradient);
      }
    </style>
    <linearGradient id="linear-gradient" x1="189.55" y1="525" x2="860.45" y2="525" gradientUnits="userSpaceOnUse">
      <stop offset="0" stop-color="#6131ff"/>
      <stop offset="1" stop-color="#9210f7"/>
    </linearGradient>
  </defs>
  <path class="cls-1" d="M330.43,596.25h21.85c9.47,0,14.88,4.67,14.88,12.85,0,5.21-2.77,8.86-7.51,10.15v.07c5.75,1.22,9,5.28,9,11.3,0,8.45-5.95,13.33-16.3,13.33h-21.92v-47.69ZM351.6,616.88c6.36,0,10.01-2.84,10.01-7.78s-3.65-7.85-10.01-7.85h-15.56v15.62h15.56ZM351.6,638.93c7.24,0,11.5-3.11,11.5-8.59s-4.26-8.45-11.5-8.45h-15.56v17.05h15.56ZM369.81,650.57l4.4-2.98c2.16,4.33,6.76,7.24,12.85,7.24,7.71,0,12.45-4.33,12.45-11.57v-2.97h-.07c-2.37,3.99-6.97,6.36-11.7,6.36-8.52,0-14.07-6.36-14.07-15.08v-21.78h5.14v21.78c0,6.09,3.59,10.42,9.54,10.42s11.09-4.67,11.09-11.16v-21.04h5.14l.07,33.48c0,10.21-6.76,16.24-17.45,16.24-8.45,0-14.75-3.52-17.38-8.93ZM430.49,596.25h19.55c10.21,0,17.32,6.02,17.32,14.48s-7.17,14.41-17.32,14.41h-14.07v18.81h-5.48v-47.69ZM450.04,620.06c6.83,0,11.7-3.86,11.7-9.34s-4.8-9.47-11.7-9.47h-14.07v18.81h14.07ZM497.39,619.05l-4.47,1.49c-.54-4.8-3.04-7.37-6.76-7.37-5.48,0-8.93,4.53-8.93,11.97v18.81h-5.14v-34.16h4.4l.47,5.34h.07c1.89-4.13,5.55-6.76,9.88-6.76,5.82,0,9.81,3.86,10.49,10.69ZM500.1,626.89c0-11.16,7.24-18.47,18.2-18.47s18.26,7.31,18.26,18.47-7.24,18.4-18.26,18.4-18.2-7.31-18.2-18.4ZM531.35,626.89c0-8.32-5.14-13.73-13.06-13.73s-13.06,5.41-13.06,13.73,5.14,13.73,13.06,13.73,13.06-5.41,13.06-13.73ZM544.55,614.04h-7.51v-4.26h7.51v-5.95c0-6.29,4.46-10.62,11.09-10.62,6.02,0,10.48,3.65,11.7,8.73l-4.53,1.89c-.74-3.52-3.59-6.16-6.97-6.16-3.59,0-6.16,2.84-6.16,7.04v5.07h14.75v4.26h-14.75l.07,29.9h-5.14l-.07-29.9ZM567.96,631.83v-22.05h5.21v21.51c0,5.82,3.45,9.54,8.86,9.54,6.83,0,11.77-4.8,11.77-11.77v-19.28h5.14v34.16h-4.67l-.47-5.07h-.07c-2.91,4.13-7.17,6.43-13.12,6.43-7.85,0-12.65-5-12.65-13.46ZM636.69,621.89v22.05h-5.21v-21.51c0-5.82-3.45-9.54-8.86-9.54-6.83,0-11.77,4.8-11.77,11.77v19.28h-5.14v-34.16h4.67l.47,5.07h.07c2.91-4.13,7.17-6.43,13.12-6.43,7.85,0,12.65,5,12.65,13.46ZM641.77,626.89c0-10.69,7.31-18.47,17.32-18.47,5.68,0,10.28,2.64,13.19,7.1h.07v-21.31h5.21v49.72h-4.53l-.47-5.89h-.07c-2.91,4.53-7.64,7.24-13.33,7.24-10.01,0-17.38-7.78-17.38-18.4ZM672.55,626.89c0-7.78-5.41-13.73-12.78-13.73s-12.85,5.95-12.85,13.73,5.48,13.73,12.85,13.73,12.78-6.02,12.78-13.73ZM682.29,635.01c0-5.48,4.33-9.88,15.42-11.23l8.46-1.01c1.69-.2,2.77-1.15,2.77-2.64,0-4.26-4.06-7.04-10.01-7.04-6.43,0-10.96,4.13-11.23,8.18l-4.67-1.96c.61-5.61,7.24-10.89,16.1-10.89s14.88,4.87,14.88,12.51v23h-4.67l-.54-5.68h-.07c-2.43,4.33-7.17,7.03-13.26,7.03-7.78,0-13.19-4.19-13.19-10.28ZM708.81,629.33v-2.44l-10.55,1.29c-8.25,1.01-10.82,3.65-10.82,6.76,0,3.45,3.72,5.68,8.93,5.68,7.17,0,12.45-4.67,12.45-11.3ZM312.52,488.89c12.97,9.47,21.4,23.12,21.4,41.24,0,45.68-35.02,62.7-72.37,62.7-39.74,0-63.45-20.22-72-52.89l47.06-16.55c3.95,7.97,13.73,16.2,24.94,16.2s22.25-4.14,22.25-14.75-9.96-14.75-22.25-14.75h-15.44v-37.77s17.14.16,17.18.16c10.32,0,18.69-5.36,18.69-14.36,0-9.79-8.37-14.36-18.69-14.36-14.36,0-20.07,12.17-21.4,17.44l-47.16-11.28c4.43-39.65,31-59.4,68.56-59.4,40.74,0,68.81,23.05,68.8,57.71,0,16.22-8.16,30.16-19.58,40.67h0ZM456.86,535.59c0,24.9-19.58,40.14-59.01,40.14s-54.58-20.65-56.53-39.34h31.72c1.95,5.94,9.57,12.67,26.67,12.67,15.51,0,25.43-4.43,25.43-11.61,0-17.9-80.64-4.17-80.64-47.59,0-22.68,20.65-40.14,55.38-40.14s53.43,20.65,55.38,39.34h-31.72c-1.95-5.94-8.95-12.67-24.28-12.67-13.91,0-23.04,4.78-23.04,11.61,0,18.52,80.64,2.93,80.64,47.59ZM471.99,456.07c0-8.59,7.26-15.55,16.22-15.55s16.22,6.96,16.22,15.55-7.26,15.55-16.22,15.55-16.22-6.96-16.22-15.55ZM473.59,574.14v-95.7h29.24v95.7h-29.24ZM597.76,574.14l-23.3-31.83-23.51,31.83h-36.27l39.04-49.63-35.85-46.07h35.65l20.53,28.1,20.52-28.1h35.65l-35.45,46.06,38.64,49.63h-35.65ZM685.51,503.87v33.14c0,10.1,4.78,13.29,15.51,13.29,6.82,0,13.56-.75,13.56-.75v24.81c-4.43.68-12.5,1.37-20.56,1.37-23.92,0-37.75-13.38-37.75-33.67v-38.19h-22.33v-25.43h15.06c6.91,0,10.99-2.84,10.99-10.99v-12.94h25.52v23.93h29.06v25.43h-29.06ZM838.04,478.44l-47.69,103.94c-7.22,15.95-20.28,26.85-40.57,26.85-7.53,0-15.06-.71-19.32-1.42v-24.81s4.61.8,9.13.8c10.16,0,17.69-4.42,22.31-11.97l-42.6-93.39h31.81l27.56,63.09,27.56-63.09h31.81ZM848.25,455.63c-6.72,0-12.2-5.47-12.2-12.2s5.47-12.2,12.2-12.2,12.2,5.47,12.2,12.2-5.47,12.2-12.2,12.2ZM848.25,437.24c-3.42,0-6.2,2.78-6.2,6.2s2.78,6.2,6.2,6.2,6.2-2.78,6.2-6.2-2.78-6.2-6.2-6.2Z"/>
</svg>