<svg width="10" height="8" viewBox="0 0 10 8" fill="none" xmlns="http://www.w3.org/2000/svg">
<g clip-path="url(#clip0_49_1489)">
<path d="M8.19579 1.0912C8.19324 1.08625 8.18901 1.08237 8.18386 1.08026C7.58818 0.806957 6.95957 0.612071 6.31376 0.500478C6.3079 0.499387 6.30183 0.500174 6.29644 0.502727C6.29105 0.50528 6.28659 0.509468 6.28372 0.514697C6.19812 0.670054 6.12042 0.829632 6.0509 0.992822C5.35476 0.887147 4.64665 0.887147 3.9505 0.992822C3.88052 0.829218 3.80158 0.6696 3.71401 0.514697C3.71101 0.509582 3.70654 0.50549 3.70117 0.502954C3.69581 0.500417 3.68981 0.499555 3.68395 0.500478C3.03807 0.611836 2.40942 0.806737 1.81383 1.08027C1.80873 1.08244 1.80443 1.08613 1.80151 1.09084C0.610435 2.86956 0.284154 4.60454 0.444217 6.31804C0.444667 6.32224 0.445957 6.32631 0.448011 6.33C0.450064 6.33369 0.452839 6.33693 0.45617 6.33952C1.14972 6.85305 1.92547 7.24503 2.75031 7.49873C2.75612 7.50047 2.76232 7.50039 2.76808 7.4985C2.77385 7.49662 2.77889 7.49301 2.78254 7.48817C2.9597 7.24712 3.11668 6.99186 3.25187 6.72501C3.25373 6.72135 3.25479 6.71733 3.25498 6.71323C3.25518 6.70913 3.2545 6.70503 3.253 6.70121C3.25149 6.69739 3.2492 6.69393 3.24626 6.69107C3.24332 6.6882 3.23981 6.68598 3.23595 6.68457C2.98841 6.58986 2.74877 6.47568 2.51926 6.34312C2.51509 6.34067 2.51159 6.33723 2.50907 6.3331C2.50654 6.32898 2.50507 6.3243 2.50479 6.31947C2.5045 6.31464 2.50541 6.30982 2.50743 6.30542C2.50945 6.30103 2.51252 6.2972 2.51637 6.29427C2.56453 6.2582 2.61272 6.22067 2.6587 6.18276C2.66279 6.17939 2.66773 6.17724 2.67298 6.17653C2.67822 6.17582 2.68356 6.1766 2.68839 6.17876C4.19197 6.86496 5.81979 6.86496 7.30558 6.17876C7.31042 6.17646 7.31581 6.17558 7.32113 6.17622C7.32646 6.17687 7.33149 6.17901 7.33564 6.1824C7.38164 6.22031 7.42981 6.2582 7.47833 6.29427C7.4822 6.29717 7.4853 6.30097 7.48735 6.30535C7.4894 6.30973 7.49034 6.31454 7.49009 6.31937C7.48984 6.3242 7.48841 6.32889 7.48591 6.33303C7.48342 6.33718 7.47994 6.34064 7.47579 6.34312C7.24681 6.4768 7.00695 6.5909 6.75876 6.68421C6.75491 6.68568 6.75141 6.68794 6.74849 6.69086C6.74557 6.69377 6.7433 6.69726 6.74182 6.70112C6.74035 6.70497 6.7397 6.70908 6.73993 6.7132C6.74016 6.71732 6.74125 6.72134 6.74314 6.72501C6.8806 6.99038 7.03734 7.24531 7.21211 7.48774C7.21565 7.49272 7.22068 7.49645 7.22646 7.49841C7.23224 7.50037 7.2385 7.50047 7.24434 7.49868C8.07066 7.24584 8.84776 6.85383 9.54219 6.33952C9.54557 6.33706 9.54838 6.3339 9.55044 6.33025C9.5525 6.32661 9.55377 6.32257 9.55414 6.3184C9.74576 4.33742 9.23333 2.61665 8.19579 1.0912ZM3.47642 5.2747C3.02373 5.2747 2.65073 4.85927 2.65073 4.34909C2.65073 3.8389 3.0165 3.42345 3.47642 3.42345C3.93994 3.42345 4.30933 3.84251 4.30209 4.34906C4.30209 4.85927 3.93631 5.2747 3.47642 5.2747ZM6.52923 5.2747C6.07656 5.2747 5.70356 4.85927 5.70356 4.34909C5.70356 3.8389 6.06933 3.42345 6.52923 3.42345C6.99278 3.42345 7.36215 3.84251 7.35492 4.34906C7.35492 4.85927 6.99278 5.2747 6.52923 5.2747Z" fill="white"/>
</g>
<defs>
<clipPath id="clip0_49_1489">
<rect width="10" height="8" fill="white"/>
</clipPath>
</defs>
</svg>
