<svg width="30" height="47" viewBox="0 0 30 47" fill="none" xmlns="http://www.w3.org/2000/svg">
<path d="M27.4707 2.50282C26.2643 1.31117 24.7292 0.498619 23.058 0.167071C21.3868 -0.164477 19.6539 -0.000254885 18.0766 0.639139C16.4994 1.27853 15.148 2.36463 14.192 3.7612C13.2359 5.15777 12.7179 6.80264 12.7027 8.48949C11.4554 7.82944 10.0623 7.48581 8.64789 7.48936C7.51209 7.48907 6.38736 7.71027 5.33796 8.14034C4.28857 8.57041 3.33508 9.20092 2.53198 9.99583C1.72888 10.7907 1.09191 11.7345 0.657465 12.7731C0.223016 13.8117 -0.00039345 14.9249 5.20149e-07 16.049V38.5193C0.0212265 40.7757 0.94181 42.9326 2.56151 44.5208C4.18121 46.109 6.369 47 8.64902 47C10.929 47 13.1168 46.109 14.7365 44.5208C16.3562 42.9326 17.2768 40.7757 17.298 38.5193V30.0338C18.6166 30.7244 20.0932 31.066 21.5845 31.0253C23.0758 30.9847 24.5312 30.5631 25.8093 29.8016C27.0874 29.0401 28.145 27.9645 28.8792 26.6792C29.6135 25.3939 29.9996 23.9426 30 22.466V8.55849C30.0013 7.4341 29.7786 6.3205 29.3446 5.2814C28.9106 4.24229 28.2738 3.29809 27.4707 2.50282ZM12.4321 37.7165C12.4391 38.2126 12.3465 38.7052 12.1596 39.1656C11.9726 39.626 11.6951 40.045 11.3431 40.3983C10.9911 40.7516 10.5717 41.0321 10.1092 41.2236C9.64668 41.4151 9.15035 41.5137 8.64902 41.5137C8.14769 41.5137 7.65135 41.4151 7.18886 41.2236C6.72637 41.0321 6.30694 40.7516 5.95495 40.3983C5.60296 40.045 5.32542 39.626 5.13847 39.1656C4.95152 38.7052 4.85888 38.2126 4.86594 37.7165V16.8518C4.85888 16.3557 4.95152 15.8631 5.13847 15.4027C5.32542 14.9424 5.60296 14.5233 5.95495 14.17C6.30694 13.8167 6.72637 13.5362 7.18886 13.3447C7.65135 13.1532 8.14769 13.0546 8.64902 13.0546C9.15035 13.0546 9.64668 13.1532 10.1092 13.3447C10.5717 13.5362 10.9911 13.8167 11.3431 14.17C11.6951 14.5233 11.9726 14.9424 12.1596 15.4027C12.3465 15.8631 12.4391 16.3557 12.4321 16.8518V37.7165ZM25.5254 22.0832C25.525 23.0927 25.1511 24.067 24.4744 24.8223C23.7977 25.5776 22.865 26.0616 21.8524 26.1827C20.8398 26.3039 19.8174 26.0539 18.9783 25.48C18.1393 24.9061 17.5415 24.048 17.298 23.0677C17.2194 22.7453 17.1794 22.4149 17.1788 22.0832V10.0142C17.1788 8.91872 17.6185 7.86815 18.4012 7.09356C19.1838 6.31897 20.2453 5.88381 21.3521 5.88381C22.4589 5.88381 23.5204 6.31897 24.303 7.09356C25.0857 7.86815 25.5254 8.91872 25.5254 10.0142V22.0832Z" fill="#017CF4"/>
</svg>
