<svg width="10" height="10" viewBox="0 0 10 10" fill="none" xmlns="http://www.w3.org/2000/svg">
<g clip-path="url(#clip0_49_1483)">
<path d="M5 0.900833C6.335 0.900833 6.49333 0.905833 7.02042 0.93C7.56542 0.955 8.12667 1.07917 8.52375 1.47625C8.92458 1.87708 9.045 2.43292 9.07 2.97958C9.09417 3.50667 9.09917 3.665 9.09917 5C9.09917 6.335 9.09417 6.49333 9.07 7.02042C9.04542 7.5625 8.91833 8.12917 8.52375 8.52375C8.12292 8.92458 7.5675 9.045 7.02042 9.07C6.49333 9.09417 6.335 9.09917 5 9.09917C3.665 9.09917 3.50667 9.09417 2.97958 9.07C2.44167 9.04542 1.8675 8.91542 1.47625 8.52375C1.0775 8.125 0.955 7.56375 0.93 7.02042C0.905833 6.49333 0.900833 6.335 0.900833 5C0.900833 3.665 0.905833 3.50667 0.93 2.97958C0.954583 2.43958 1.08292 1.86958 1.47625 1.47625C1.87625 1.07625 2.43417 0.955 2.97958 0.93C3.50667 0.905833 3.665 0.900833 5 0.900833ZM5 0C3.64208 0 3.47167 0.00583333 2.93833 0.03C2.16542 0.0654167 1.39792 0.280417 0.839167 0.839167C0.278333 1.4 0.0654167 2.16583 0.03 2.93833C0.00583333 3.47167 0 3.64208 0 5C0 6.35792 0.00583333 6.52833 0.03 7.06167C0.0654167 7.83375 0.28125 8.60333 0.839167 9.16083C1.39958 9.72125 2.16667 9.93458 2.93833 9.97C3.47167 9.99417 3.64208 10 5 10C6.35792 10 6.52833 9.99417 7.06167 9.97C7.83417 9.93458 8.6025 9.71917 9.16083 9.16083C9.72208 8.59958 9.93458 7.83417 9.97 7.06167C9.99417 6.52833 10 6.35792 10 5C10 3.64208 9.99417 3.47167 9.97 2.93833C9.93458 2.16542 9.71917 1.3975 9.16083 0.839167C8.60125 0.279583 7.83208 0.065 7.06167 0.03C6.52833 0.00583333 6.35792 0 5 0Z" fill="white"/>
<path d="M5.00012 2.4325C3.5822 2.4325 2.43262 3.58208 2.43262 5C2.43262 6.41791 3.5822 7.5675 5.00012 7.5675C6.41803 7.5675 7.56762 6.41791 7.56762 5C7.56762 3.58208 6.41803 2.4325 5.00012 2.4325ZM5.00012 6.66666C4.0797 6.66666 3.33345 5.92041 3.33345 5C3.33345 4.07958 4.0797 3.33333 5.00012 3.33333C5.92053 3.33333 6.66678 4.07958 6.66678 5C6.66678 5.92041 5.92053 6.66666 5.00012 6.66666Z" fill="white"/>
<path d="M7.66934 2.93084C8.00071 2.93084 8.26934 2.66221 8.26934 2.33083C8.26934 1.99946 8.00071 1.73083 7.66934 1.73083C7.33797 1.73083 7.06934 1.99946 7.06934 2.33083C7.06934 2.66221 7.33797 2.93084 7.66934 2.93084Z" fill="white"/>
</g>
<defs>
<clipPath id="clip0_49_1483">
<rect width="10" height="10" fill="white"/>
</clipPath>
</defs>
</svg>
