<svg width="10" height="10" viewBox="0 0 10 10" fill="none" xmlns="http://www.w3.org/2000/svg">
<path d="M8.52067 8.52105H7.03888V6.20046C7.03888 5.64705 7.02903 4.93496 6.26817 4.93496C5.49648 4.93496 5.37821 5.53765 5.37821 6.16055V8.52105H3.89691V3.74879H5.31957V4.40076H5.33928C5.62953 3.90501 6.16863 3.60883 6.74272 3.63002C8.24471 3.63002 8.52116 4.61809 8.52116 5.90281L8.52067 8.52105ZM2.22491 3.09632C1.74986 3.09632 1.365 2.71145 1.365 2.23639C1.365 1.76133 1.74986 1.37645 2.22491 1.37645C2.69995 1.37645 3.08481 1.76133 3.08481 2.23639C3.08481 2.71145 2.69995 3.09632 2.22491 3.09632ZM2.96555 8.52105H1.48228V3.74879H2.96555V8.52105ZM9.25935 0.000560111H0.737693C0.335091 -0.00387508 0.00492781 0.318908 0 0.721525V9.27849C0.00492781 9.6816 0.335091 10.0044 0.737693 9.99994H9.25935C9.66294 10.0049 9.99458 9.68209 10 9.27849V0.721032C9.99409 0.31743 9.66245 -0.0053535 9.25935 6.72894e-05" fill="white"/>
</svg>
