<?xml version="1.0" encoding="UTF-8"?>
<svg id="Layer_1" data-name="Layer 1" xmlns="http://www.w3.org/2000/svg" xmlns:xlink="http://www.w3.org/1999/xlink" viewBox="0 0 1050 1050">
  <defs>
    <style>
      .cls-1 {
        fill: none;
        stroke: #1454ce;
        stroke-miterlimit: 10;
        stroke-width: 13px;
      }

      .cls-2 {
        fill: url(#linear-gradient);
      }
    </style>
    <linearGradient id="linear-gradient" x1="596.18" y1="313.52" x2="329.22" y2="775.91" gradientUnits="userSpaceOnUse">
      <stop offset=".32" stop-color="#1770e6"/>
      <stop offset=".74" stop-color="#1454ce"/>
      <stop offset=".98" stop-color="#2137b2"/>
    </linearGradient>
  </defs>
  <path class="cls-2" d="M334.25,478.15l7.3,3.3c25.96,13.35,25.7,48.45,26.67,74.03.91,24.01,3.41,51.99-9.83,73.29-17.89,28.77-60.19,35.04-91.16,34.36-82.46-1.81-74.65-75.42-76.78-136.74-.07-1.94-.73-7.48,1.54-7.63l79.08,6.17c1.25.76.59,19.54.66,22.69.04,1.43.62,2.76.66,4.2.39,13.51-1.73,45.82,7.24,55.67,4.54,4.99,13.36,4.88,17.87-.18,6.74-7.56,3.52-29.66,3.35-39.67-.25-14.28,1.78-43.41-6.38-54.88-8.46-11.89-29.73-10.72-42.73-12.17-.83-16.35-1.15-32.73-1.21-49.14,10.5.87,36.98,9.74,43.8-1.39,5.03-8.21,2.52-26.32,2.28-35.89-.21-8.6.27-17.57-.59-26.1-.83-8.29-7.38-15.22-15.61-16.54-8.69-1.39-11.67,4.57-12.31,12.27-.94,11.27.21,27.18.6,38.87.05,1.51,1.74,6.99-.33,7.5l-79.04-16.4c-.67-25.75-3.81-62.78,14.17-83.64,23.95-27.79,84.19-4.59,110.31,11.64,36.68,22.79,48.69,58.16,46.54,100.32-.78,15.32-7.59,36.25-26.11,36.07ZM453.73,383.23c-25.71-11.63-60.18-3.32-72.46,23.34-13.59,29.51-5.22,69.4,12.78,95.19,12.98,18.6,37.93,35.35,43.52,57.79,2.35,9.46,3.76,33.25-2.35,41.09-4.12,5.28-11.41,4.95-15.33-.36-6.16-8.35-2.24-24.71.32-34.06.41-1.48,2.63-4.97,1.75-6.22l-41.66-4.44c-11.64,35.04-5.33,79.49,38.05,85.08,66.72,8.59,74.74-67.78,51.71-112.98-10.65-20.9-26.52-32.73-40.57-49.98-11.93-14.64-14.6-28.89-12.73-47.75.5-5.03,4.03-13.59,9.53-14.73,13.92-2.87,14.01,16.5,12.83,25.57-.87,6.68-3.01,13.16-5.99,19.18l42.41,5.41c9.2-28.7,9.99-67.74-21.8-82.12ZM710.65,442.35l29.72,183.8h42.77c-1.89,6.72-5.66,12.49-12.2,15.4-8.86,3.95-25.12,2.26-33.9-1.75-1.43-.65-6.71-4.7-7.84-3.9l-14.52,34.34c3.53,4.5,10.25,7.68,15.82,9.45,42.37,13.43,53.64-21.94,59.72-54.64,11.16-59.97,18.43-120.74,29.89-180.67.28-.64-.42-2.03-.88-2.03h-41.25l-13.34,160.15-12.14-160.15h-41.86ZM538.37,442.35c-.16,0-1.04.81-.68,1.25,8.38,31.64,17.49,63.12,25.3,94.9l-25.53,99.18h40.04l10.62-94.03,10.92,94.03h39.73l-.4-3.54-25.46-95.13c7.83-31.49,16.62-62.76,25.11-94.08l.15-2.58h-39.73l-10.31,90.39-10.32-90.39h-39.43ZM653.63,399.89c-2.42,0-1.35,11.39-1.52,13.64-.54,6.79-2.11,16.46-5.55,22.36-1.29,2.22-6.27,6.47-6.57,7.99-.79,4.12-.59,24.51-.04,29.13.07.61.28,2.09.94,2.09h8.8l-.02,128.32c1.63,26.34,16.55,41.52,43.84,37.11,3.39-.55,17.07-5.06,17.98-8.15l-5.98-37.18c-3.33,1.71-9.01,2.76-11.96-.17-.37-.37-1.99-4.59-1.99-4.99v-114.95h14.26c.06,0,.91-.85.91-.91v-30.94c0-.06-.85-.91-.91-.91h-54.9v-1.82c15.88-1.14,32.13-6.05,40.14-20.83,3.22-5.93,4.55-12.16,5.4-18.82-.05-.34-1.32-.96-1.56-1h-41.25ZM490.15,637.68h41.86v-195.33h-41.86v195.33ZM490.15,374.41v46.71h41.86v-46.71h-41.86ZM230.99,676.6h18.72c8.46,0,13.44,4.2,13.44,11.46,0,4.68-2.52,8.1-6.78,9.24v.12c4.92,1.08,7.8,4.74,7.8,10.08,0,7.32-5.22,11.7-14.16,11.7h-19.02v-42.6ZM248.39,694.36c3.84,0,6.12-2.04,6.12-5.52s-2.28-5.52-6.12-5.52h-8.64v11.04h8.64ZM248.39,712.48c4.44,0,7.08-2.22,7.08-5.94s-2.64-5.94-7.08-5.94h-8.64v11.88h8.64ZM266.69,726.64l4.08-5.28c2.16,3,5.52,4.8,9.3,4.8,5.22,0,8.4-3.18,8.4-8.58v-2.22h-.06c-1.74,3.36-4.92,5.4-8.46,5.4-6.36,0-10.26-4.38-10.26-11.4v-20.76h7.86v19.92c0,3.42,1.86,5.7,4.98,5.7,3.42,0,5.82-2.46,5.82-6.24v-19.38h7.8l.06,29.34c0,9.3-5.94,14.88-15.54,14.88-5.88,0-11.04-2.28-13.98-6.18ZM317.27,676.6h17.34c9.06,0,15.12,5.46,15.12,13.62s-6.06,13.56-14.88,13.56h-8.94v15.42h-8.64v-42.6ZM333.41,696.94c4.44,0,7.56-2.76,7.56-6.72s-3.06-6.78-7.56-6.78h-7.5v13.5h7.5ZM378.65,698.02l-6.6,1.86c-.18-3.9-1.68-6.06-4.08-6.06-3.12,0-4.98,3.3-4.98,8.94v16.44h-7.86v-30.6h6.36l.96,5.1h.06c1.38-3.78,4.26-6,7.74-6,5.04,0,8.16,3.78,8.4,10.32ZM382.55,703.84c0-9.9,5.94-16.26,15.12-16.26s15.12,6.36,15.12,16.26-5.94,16.38-15.12,16.38-15.12-6.42-15.12-16.38ZM404.99,703.84c0-5.88-2.88-9.54-7.32-9.54s-7.32,3.66-7.32,9.54,2.82,9.66,7.32,9.66,7.32-3.72,7.32-9.66ZM420.71,694.6h-5.58v-6h5.58v-5.1c0-5.94,4.08-9.66,10.5-9.66,4.98,0,8.58,2.46,9.84,6.42l-3.96,4.26c-.6-2.58-2.4-4.26-4.62-4.26-2.34,0-3.9,1.8-3.9,4.44v3.9h10.26v6h-10.26v24.6h-7.8l-.06-24.6ZM443.27,710.14v-21.54h7.8v20.04c0,3.12,1.74,4.98,4.56,4.98,3.78,0,6.24-2.64,6.24-6.84v-18.18h7.86v30.6h-6.6l-1.02-4.62h-.06c-1.92,3.48-5.34,5.46-9.6,5.46-5.7,0-9.18-3.66-9.18-9.9ZM503.03,697.66v21.54h-7.8v-20.04c0-3.12-1.74-4.98-4.56-4.98-3.78,0-6.24,2.64-6.24,6.84v18.18h-7.86v-30.6h6.6l1.02,4.62h.06c1.92-3.48,5.34-5.46,9.6-5.46,5.7,0,9.18,3.66,9.18,9.9ZM508.67,703.9c0-9.96,4.92-16.2,12.42-16.2,4.08,0,7.32,1.98,9.18,5.46h.06v-18.36h7.86v44.4h-6.72l-.9-4.74h-.06c-1.8,3.66-5.28,5.64-9.42,5.64-7.5,0-12.42-6.3-12.42-16.2ZM530.63,703.9c0-5.64-2.76-9.3-7.08-9.3s-7.08,3.66-7.08,9.3,2.82,9.3,7.08,9.3,7.08-3.66,7.08-9.3ZM543.47,711.16c0-5.46,4.26-9.24,12.24-10.08l4.86-.54c1.44-.12,2.52-1.08,2.52-2.76,0-2.58-2.28-4.2-5.34-4.2-3.72,0-6.12,2.82-6.24,6.06l-7.2-1.68c.24-5.82,5.58-10.38,13.5-10.38s12.9,4.56,12.9,11.4v20.22h-6.96l-.84-4.26h-.06c-1.92,3.18-5.28,4.98-9.48,4.98-5.82,0-9.9-3.36-9.9-8.76ZM562.9,706.84v-1.56l-5.4.6c-4.26.48-6.18,2.22-6.18,4.5s2.04,3.6,4.92,3.6c3.84,0,6.66-2.88,6.66-7.14Z"/>
  <path class="cls-1" d="M861.28,423c0,8.01-6.5,14.51-14.51,14.51s-14.51-6.5-14.51-14.51,6.5-14.51,14.51-14.51,14.51,6.5,14.51,14.51Z"/>
</svg>